<?xml version="1.0" encoding="UTF-8"?>
<svg width="66px" height="52px" viewBox="0 0 66 52" version="1.1" xmlns="http://www.w3.org/2000/svg" xmlns:xlink="http://www.w3.org/1999/xlink">
    <!-- Generator: Sketch 41.2 (35397) - http://www.bohemiancoding.com/sketch -->
    <title>“</title>
    <desc>Created with Sketch.</desc>
    <defs></defs>
    <g id="Home" stroke="none" stroke-width="1" fill="none" fill-rule="evenodd">
        <g transform="translate(-336.000000, -887.000000)" id="“" fill="#D8D8D8">
            <path d="M336.2,920.898679 C336.2,932.426981 343.649057,938.989245 351.984906,938.989245 C359.611321,938.989245 365.996226,932.60434 365.996226,924.977925 C365.996226,917.351509 360.675472,912.208113 353.935849,912.208113 C352.516981,912.208113 351.098113,912.385472 350.388679,912.740189 C351.984906,906.355283 358.54717,898.906226 364.222642,895.891132 L354.467925,887.91 C343.471698,895.713774 336.2,907.596792 336.2,920.898679 Z M372.381132,920.898679 C372.381132,932.426981 379.830189,938.989245 388.166038,938.989245 C395.792453,938.989245 402,932.60434 402,924.977925 C402,917.351509 396.856604,912.208113 390.116981,912.208113 C388.698113,912.208113 387.101887,912.385472 386.569811,912.740189 C387.988679,906.355283 394.728302,898.906226 400.403774,895.891132 L390.649057,887.91 C379.65283,895.713774 372.381132,907.596792 372.381132,920.898679 Z"></path>
        </g>
    </g>
</svg>